<?xml version="1.0" encoding="utf-8"?><svg xmlns="http://www.w3.org/2000/svg" xmlns:xlink="http://www.w3.org/1999/xlink" width="1366" height="661" preserveAspectRatio="xMidYMid" viewBox="0 0 1366 661" style="z-index:1;margin-right:-2px;display:block;background-color:rgb(255, 255, 255);animation-play-state:paused" ><g transform="translate(683,330.5) scale(1,1) translate(-683,-330.5)" style="transform:matrix(1, 0, 0, 1, 0, 0);animation-play-state:paused" ><path id="path0" d="M 532.7216689070216 245.1215251877803
c 0 31.91090434503619 -7.807987233359918 9.16589805655295 -16.973885289912868 9.16589805655295
S 498.7738983271958 277.0324295328165 498.7738983271958 245.1215251877803
s 7.807987233359918 -9.16589805655295 16.973885289912868 -9.16589805655295
S 532.7216689070216 213.2106208427441 532.7216689070216 245.1215251877803
z" fill="none" stroke="none" style="animation-play-state:paused" ></path>


<circle cx="0" cy="0" r="7.1226104559094505" fill="#ff708e" opacity="0.9" transform="translate(512.0628662109375 234.86788940429688)" style="opacity:0.9;animation-play-state:paused" ></circle>
<path id="path1" d="M 594.9917143850128 148.9608205760132
c 0 31.213451219535983 -7.6373338090353995 8.965565775824166 -16.602899584859564 8.965565775824166
S 561.7859152152937 180.17427179554917 561.7859152152937 148.9608205760132
s 7.6373338090353995 -8.965565775824166 16.602899584859564 -8.965565775824166
S 594.9917143850128 117.74736935647721 594.9917143850128 148.9608205760132
z" fill="none" stroke="none" style="animation-play-state:paused" ></path>


<circle cx="0" cy="0" r="6.120839002165412" fill="#51cacc" opacity="0.9" transform="translate(593.4189453125 164.09829711914062)" style="opacity:0.9;animation-play-state:paused" ></circle>
<path id="path2" d="M 1093.1836382141585 501.7657480340067
c 0 33.79494947241396 -8.268976998569372 9.707059954842308 -17.97603695341168 9.707059954842308
S 1057.231564307335 535.5606975064206 1057.231564307335 501.7657480340067
s 8.268976998569372 -9.707059954842308 17.97603695341168 -9.707059954842308
S 1093.1836382141585 467.97079856159274 1093.1836382141585 501.7657480340067
z" fill="none" stroke="none" style="animation-play-state:paused" ></path>


<circle cx="0" cy="0" r="6.364908298016575" fill="#9df871" opacity="0.9" transform="translate(1074.03466796875 511.5863342285156)" style="opacity:0.9;animation-play-state:paused" ></circle>
<path id="path3" d="M 1299.5692661495416 226.59229504005128
c 0 35.0745685030578 -8.58207527202478 10.074610101942133 -18.656685373966912 10.074610101942133
S 1262.2558954016079 261.66686354310906 1262.2558954016079 226.59229504005128
s 8.58207527202478 -10.074610101942133 18.656685373966912 -10.074610101942133
S 1299.5692661495416 191.51772653699348 1299.5692661495416 226.59229504005128
z" fill="none" stroke="none" style="animation-play-state:paused" ></path>


<circle cx="0" cy="0" r="6.498740853112488" fill="#ff708e" opacity="0.9" transform="translate(1291.3048095703125 242.77972412109375)" style="opacity:0.9;animation-play-state:paused" ></circle>
<path id="path4" d="M 1335.0358431570078 320.808892862077
c 0 33.022368295329144 -8.079941178644363 9.485148340147733 -17.565089518792096 9.485148340147733
S 1299.9056641194236 353.8312611574062 1299.9056641194236 320.808892862077
s 8.079941178644363 -9.485148340147733 17.565089518792096 -9.485148340147733
S 1335.0358431570078 287.78652456674786 1335.0358431570078 320.808892862077
z" fill="none" stroke="none" style="animation-play-state:paused" ></path>


<circle cx="0" cy="0" r="5.871010944440634" fill="#de9dd6" opacity="0.9" transform="translate(1300.1226806640625 328.8120422363281)" style="opacity:0.9;animation-play-state:paused" ></circle>
<path id="path5" d="M 571.3379541585983 418.81878239219344
c 0 25.58856289781918 -6.261031347338735 7.349906364267211 -13.610937711605946 7.349906364267211
S 544.1160787353864 444.40734529001264 544.1160787353864 418.81878239219344
s 6.261031347338735 -7.349906364267211 13.610937711605946 -7.349906364267211
S 571.3379541585983 393.23021949437424 571.3379541585983 418.81878239219344
z" fill="none" stroke="none" style="animation-play-state:paused" ></path>


<circle cx="0" cy="0" r="5.554490137344547" fill="#e0ff77" opacity="0.9" transform="translate(563.8027954101562 408.310546875)" style="opacity:0.9;animation-play-state:paused" ></circle>
<path id="path6" d="M 49.8854245970992 516.5179411183744
c 0 36.812222852992065 -9.007246017221462 10.573723585433891 -19.580969602655355 10.573723585433891
S 10.723485391788493 553.3301639713665 10.723485391788493 516.5179411183744
s 9.007246017221462 -10.573723585433891 19.580969602655355 -10.573723585433891
S 49.8854245970992 479.70571826538236 49.8854245970992 516.5179411183744
z" fill="none" stroke="none" style="animation-play-state:paused" ></path>


<circle cx="0" cy="0" r="4.758329376878188" fill="#ff708e" opacity="0.9" transform="translate(49.8124885559082 511.2573547363281)" style="opacity:0.9;animation-play-state:paused" ></circle>
<path id="path7" d="M 898.2794253270941 322.6988699970909
c 0 36.04045387520709 -8.818408926912372 10.35204526202757 -19.170454188939942 10.35204526202757
S 859.9385169492142 358.73932387229803 859.9385169492142 322.6988699970909
s 8.818408926912372 -10.35204526202757 19.170454188939942 -10.35204526202757
S 898.2794253270941 286.6584161218838 898.2794253270941 322.6988699970909
z" fill="none" stroke="none" style="animation-play-state:paused" ></path>


<circle cx="0" cy="0" r="6.845963334689555" fill="#ff708e" opacity="0.9" transform="translate(871.5753784179688 308.7569885253906)" style="opacity:0.9;animation-play-state:paused" ></circle>
<path id="path8" d="M 768.577083334988 364.1718417681979
c 0 33.291194547223846 -8.14571781474626 9.562364391223872 -17.70808220597013 9.562364391223872
S 733.1609189230476 397.46303631542173 733.1609189230476 364.1718417681979
s 8.14571781474626 -9.562364391223872 17.70808220597013 -9.562364391223872
S 768.577083334988 330.8806472209741 768.577083334988 364.1718417681979
z" fill="none" stroke="none" style="animation-play-state:paused" ></path>


<circle cx="0" cy="0" r="4.272877769734903" fill="#51cacc" opacity="0.9" transform="translate(764.8823852539062 346.41326904296875)" style="opacity:0.9;animation-play-state:paused" ></circle>
<path id="path9" d="M 459.15540524039574 241.14626430168093
c 0 34.2146977048924 -8.371681353324735 9.827625936511646 -18.199307289836383 9.827625936511646
S 422.75679066072297 275.36096200657335 422.75679066072297 241.14626430168093
s 8.371681353324735 -9.827625936511646 18.199307289836383 -9.827625936511646
S 459.15540524039574 206.9315665967885 459.15540524039574 241.14626430168093
z" fill="none" stroke="none" style="animation-play-state:paused" ></path>


<circle cx="0" cy="0" r="7.2497597098850655" fill="#9df871" opacity="0.9" transform="translate(459.1540222167969 240.42994689941406)" style="opacity:0.9;animation-play-state:paused" ></circle>
<path id="path10" d="M 273.50591793336343 626.7593223968189
c 0 34.377622688182 -8.411545976895596 9.874423538094831 -18.285969514990427 9.874423538094831
S 236.93397890338255 661.1369450850009 236.93397890338255 626.7593223968189
s 8.411545976895596 -9.874423538094831 18.285969514990427 -9.874423538094831
S 273.50591793336343 592.3816997086369 273.50591793336343 626.7593223968189
z" fill="none" stroke="none" style="animation-play-state:paused" ></path>


<circle cx="0" cy="0" r="6.685846890610671" fill="#9df871" opacity="0.9" transform="translate(238.20819091796875 611.2907104492188)" style="opacity:0.9;animation-play-state:paused" ></circle>
<path id="path11" d="M 1215.9482140927375 279.5014051360272
c 0 33.07002060223974 -8.091600785654403 9.49883570489865 -17.590436490553053 9.49883570489865
S 1180.7673411116316 312.57142573826695 1180.7673411116316 279.5014051360272
s 8.091600785654403 -9.49883570489865 17.590436490553053 -9.49883570489865
S 1215.9482140927375 246.43138453378745 1215.9482140927375 279.5014051360272
z" fill="none" stroke="none" style="animation-play-state:paused" ></path>


<circle cx="0" cy="0" r="7.339623113232206" fill="#e0ff77" opacity="0.9" transform="translate(1214.487548828125 263.9400329589844)" style="opacity:0.9;animation-play-state:paused" ></circle>
<path id="path12" d="M 134.2358847815961 491.24429154378134
c 0 19.28770583944361 -4.7193322798638615 5.540085719840186 -10.259417999704048 5.540085719840186
S 113.71704878218799 510.53199738322496 113.71704878218799 491.24429154378134
s 4.7193322798638615 -5.540085719840186 10.259417999704048 -5.540085719840186
S 134.2358847815961 471.9565857043377 134.2358847815961 491.24429154378134
z" fill="none" stroke="none" style="animation-play-state:paused" ></path>


<circle cx="0" cy="0" r="5.0306282083018505" fill="#e0ff77" opacity="0.9" transform="translate(134.1923370361328 488.3160400390625)" style="opacity:0.9;animation-play-state:paused" ></circle>
<path id="path13" d="M 263.6327114397924 510.65639482977315
c 0 21.308339538182462 -5.213742652959538 6.120480505648154 -11.334223158607692 6.120480505648154
S 240.964265122577 531.9647343679557 240.964265122577 510.65639482977315
s 5.213742652959538 -6.120480505648154 11.334223158607692 -6.120480505648154
S 263.6327114397924 489.3480552915907 263.6327114397924 510.65639482977315
z" fill="none" stroke="none" style="animation-play-state:paused" ></path>


<circle cx="0" cy="0" r="4.421557655880332" fill="#de9dd6" opacity="0.9" transform="translate(263.62841796875 511.6802062988281)" style="opacity:0.9;animation-play-state:paused" ></circle>
<path id="path14" d="M 235.49145791514167 92.77521181253563
c 0 24.204176653416898 -5.922298542857326 6.952263506832514 -12.874562049689839 6.952263506832514
S 209.74233381576198 116.97938846595252 209.74233381576198 92.77521181253563
s 5.922298542857326 -6.952263506832514 12.874562049689839 -6.952263506832514
S 235.49145791514167 68.57103515911874 235.49145791514167 92.77521181253563
z" fill="none" stroke="none" style="animation-play-state:paused" ></path>


<circle cx="0" cy="0" r="7.824870809008545" fill="#9df871" opacity="0.9" transform="translate(209.90853881835938 98.75393676757812)" style="opacity:0.9;animation-play-state:paused" ></circle>
<path id="path15" d="M 1265.9681658859633 119.2454931192288
c 0 27.903330930272016 -6.827410759534641 8.014786543801536 -14.842197303336178 8.014786543801536
S 1236.283771279291 147.1488240495008 1236.283771279291 119.2454931192288
s 6.827410759534641 -8.014786543801536 14.842197303336178 -8.014786543801536
S 1265.9681658859633 91.34216218895678 1265.9681658859633 119.2454931192288
z" fill="none" stroke="none" style="animation-play-state:paused" ></path>


<circle cx="0" cy="0" r="6.406045204768717" fill="#e0ff77" opacity="0.9" transform="translate(1236.8094482421875 109.07725524902344)" style="opacity:0.9;animation-play-state:paused" ></circle>
<path id="path16" d="M 1001.1389234108568 471.732560325376
c 0 26.07482055645493 -6.380009285090035 7.489576117279609 -13.869585402369644 7.489576117279609
S 973.3997526061174 497.80738088183097 973.3997526061174 471.732560325376
s 6.380009285090035 -7.489576117279609 13.869585402369644 -7.489576117279609
S 1001.1389234108568 445.6577397689211 1001.1389234108568 471.732560325376
z" fill="none" stroke="none" style="animation-play-state:paused" ></path>


<circle cx="0" cy="0" r="4.181977328983011" fill="#de9dd6" opacity="0.9" transform="translate(997.3477783203125 485.4216613769531)" style="opacity:0.9;animation-play-state:paused" ></circle>
<path id="path17" d="M 601.157756095428 90.21328125905359
c 0 27.98574361705024 -6.847575565873994 8.038458272982515 -14.886033838856509 8.038458272982515
S 571.385688417715 118.19902487610383 571.385688417715 90.21328125905359
s 6.847575565873994 -8.038458272982515 14.886033838856509 -8.038458272982515
S 601.157756095428 62.22753764200335 601.157756095428 90.21328125905359
z" fill="none" stroke="none" style="animation-play-state:paused" ></path>


<circle cx="0" cy="0" r="5.684249308344954" fill="#e0ff77" opacity="0.9" transform="translate(581.7146606445312 100.0469970703125)" style="opacity:0.9;animation-play-state:paused" ></circle>
<path id="path18" d="M 1243.2411584567678 434.42371156762823
c 0 37.42802077361199 -9.157919976522082 10.750601711569402 -19.908521688091486 10.750601711569402
S 1203.424115080585 471.8517323412402 1203.424115080585 434.42371156762823
s 9.157919976522082 -10.750601711569402 19.908521688091486 -10.750601711569402
S 1243.2411584567678 396.99569079401624 1243.2411584567678 434.42371156762823
z" fill="none" stroke="none" style="animation-play-state:paused" ></path>


<circle cx="0" cy="0" r="6.20677114808269" fill="#ff708e" opacity="0.9" transform="translate(1203.9388427734375 446.5943298339844)" style="opacity:0.9;animation-play-state:paused" ></circle>
<path id="path19" d="M 605.0183530894864 397.7153826508297
c 0 21.200671123164817 -5.1873982535403265 6.089554471547341 -11.276952725087668 6.089554471547341
S 582.4644476393111 418.9160537739945 582.4644476393111 397.7153826508297
s 5.1873982535403265 -6.089554471547341 11.276952725087668 -6.089554471547341
S 605.0183530894864 376.51471152766493 605.0183530894864 397.7153826508297
z" fill="none" stroke="none" style="animation-play-state:paused" ></path>


<circle cx="0" cy="0" r="4.5660238985913555" fill="#9df871" opacity="0.9" transform="translate(582.5621337890625 393.2979431152344)" style="opacity:0.9;animation-play-state:paused" ></circle>
<path id="path20" d="M 1284.3357352394814 571.1823313980162
c 0 35.46562507562666 -8.677759327015032 10.186934862148084 -18.864694189163117 10.186934862148084
S 1246.606346861155 606.6479564736429 1246.606346861155 571.1823313980162
s 8.677759327015032 -10.186934862148084 18.864694189163117 -10.186934862148084
S 1284.3357352394814 535.7167063223895 1284.3357352394814 571.1823313980162
z" fill="none" stroke="none" style="animation-play-state:paused" ></path>


<circle cx="0" cy="0" r="5.98479385462296" fill="#51cacc" opacity="0.9" transform="translate(1258.4339599609375 557.7667236328125)" style="opacity:0.9;animation-play-state:paused" ></circle>
<path id="path21" d="M 822.3972143680513 501.8514548848711
c 0 37.27920052489387 -9.121506511410201 10.707855469916325 -19.829361981326524 10.707855469916325
S 782.7384904053982 539.1306554097649 782.7384904053982 501.8514548848711
s 9.121506511410201 -10.707855469916325 19.829361981326524 -10.707855469916325
S 822.3972143680513 464.57225435997725 822.3972143680513 501.8514548848711
z" fill="none" stroke="none" style="animation-play-state:paused" ></path>


<circle cx="0" cy="0" r="5.988262519452309" fill="#e0ff77" opacity="0.9" transform="translate(820.2902221679688 483.3406982421875)" style="opacity:0.9;animation-play-state:paused" ></circle>
<path id="path22" d="M 104.42535804388933 110.36811020288951
c 0 35.54298896017193 -8.696688788127174 10.20915640345364 -18.905845191580816 10.20915640345364
S 66.61366766072771 145.91109916306144 66.61366766072771 110.36811020288951
s 8.696688788127174 -10.20915640345364 18.905845191580816 -10.20915640345364
S 104.42535804388933 74.82512124271759 104.42535804388933 110.36811020288951
z" fill="none" stroke="none" style="animation-play-state:paused" ></path>


<circle cx="0" cy="0" r="4.499422808305892" fill="#9df871" opacity="0.9" transform="translate(104.0819320678711 100.28096771240234)" style="opacity:0.9;animation-play-state:paused" ></circle>
<path id="path23" d="M 1257.435627775269 536.6288671776905
c 0 29.041462159180593 -7.1058896772463145 8.341696577636979 -15.447586254883294 8.341696577636979
S 1226.5404552655023 565.6703293368711 1226.5404552655023 536.6288671776905
s 7.1058896772463145 -8.341696577636979 15.447586254883294 -8.341696577636979
S 1257.435627775269 507.5874050185099 1257.435627775269 536.6288671776905
z" fill="none" stroke="none" style="animation-play-state:paused" ></path>


<circle cx="0" cy="0" r="5.03875196252891" fill="#e0ff77" opacity="0.9" transform="translate(1227.384521484375 524.4389038085938)" style="opacity:0.9;animation-play-state:paused" ></circle>
<path id="path24" d="M 1189.283797237644 402.57725548379483
c 0 19.256961693057878 -4.71180977596097 5.531254954388966 -10.243064730349936 5.531254954388966
S 1168.797667776944 421.8342171768527 1168.797667776944 402.57725548379483
s 4.71180977596097 -5.531254954388966 10.243064730349936 -5.531254954388966
S 1189.283797237644 383.32029379073697 1189.283797237644 402.57725548379483
z" fill="none" stroke="none" style="animation-play-state:paused" ></path>


<circle cx="0" cy="0" r="4.810161699953264" fill="#de9dd6" opacity="0.9" transform="translate(1186.1474609375 392.64044189453125)" style="opacity:0.9;animation-play-state:paused" ></circle>
<path id="path25" d="M 858.2595334131336 308.42362297558367
c 0 27.91623213408315 -6.830567437062897 8.01849220872601 -14.849059645788909 8.01849220872601
S 828.5614141215558 336.3398551096668 828.5614141215558 308.42362297558367
s 6.830567437062897 -8.01849220872601 14.849059645788909 -8.01849220872601
S 858.2595334131336 280.5073908415005 858.2595334131336 308.42362297558367
z" fill="none" stroke="none" style="animation-play-state:paused" ></path>


<circle cx="0" cy="0" r="4.046266857331715" fill="#de9dd6" opacity="0.9" transform="translate(857.760009765625 298.4359130859375)" style="opacity:0.9;animation-play-state:paused" ></circle>
<path id="path26" d="M 589.3725501011454 567.1488585521686
c 0 23.325486194930352 -5.7072998136531705 6.699873694288505 -12.407173507941675 6.699873694288505
S 564.558203085262 590.4743447470989 564.558203085262 567.1488585521686
s 5.7072998136531705 -6.699873694288505 12.407173507941675 -6.699873694288505
S 589.3725501011454 543.8233723572382 589.3725501011454 567.1488585521686
z" fill="none" stroke="none" style="animation-play-state:paused" ></path>


<circle cx="0" cy="0" r="7.780574840910774" fill="#51cacc" opacity="0.9" transform="translate(566.3395385742188 579.299072265625)" style="opacity:0.9;animation-play-state:paused" ></circle>
<path id="path27" d="M 1006.0229484357703 280.4127315851889
c 0 34.550440460919454 -8.45383117660795 9.924062685583246 -18.377893862191197 9.924062685583246
S 969.267160711388 314.96317204610835 969.267160711388 280.4127315851889
s 8.45383117660795 -9.924062685583246 18.377893862191197 -9.924062685583246
S 1006.0229484357703 245.86229112426946 1006.0229484357703 280.4127315851889
z" fill="none" stroke="none" style="animation-play-state:paused" ></path>


<circle cx="0" cy="0" r="5.585713990245777" fill="#51cacc" opacity="0.9" transform="translate(986.5601806640625 290.43212890625)" style="opacity:0.9;animation-play-state:paused" ></circle>
<path id="path28" d="M 881.3313977449807 252.94303340357072
c 0 27.346236466670128 -6.691100412057583 7.854770048937164 -14.545870460994747 7.854770048937164
S 852.2396568229913 280.28926987024084 852.2396568229913 252.94303340357072
s 6.691100412057583 -7.854770048937164 14.545870460994747 -7.854770048937164
S 881.3313977449807 225.5967969369006 881.3313977449807 252.94303340357072
z" fill="none" stroke="none" style="animation-play-state:paused" ></path>


<circle cx="0" cy="0" r="7.7883308257266775" fill="#de9dd6" opacity="0.9" transform="translate(868.9484252929688 261.2527160644531)" style="opacity:0.9;animation-play-state:paused" ></circle>
<path id="path29" d="M 405.6450858068449 185.92472257595134
c 0 32.18515288493786 -7.875090599506071 9.244671573333214 -17.119762172839287 9.244671573333214
S 371.40556146116637 218.10987546088919 371.40556146116637 185.92472257595134
s 7.875090599506071 -9.244671573333214 17.119762172839287 -9.244671573333214
S 405.6450858068449 153.7395696910135 405.6450858068449 185.92472257595134
z" fill="none" stroke="none" style="animation-play-state:paused" ></path>


<circle cx="0" cy="0" r="7.545656356683737" fill="#51cacc" opacity="0.9" transform="translate(392.4977722167969 175.4378204345703)" style="opacity:0.9;animation-play-state:paused" ></circle></g></svg>